<svg width="1000" height="400" fill="none" xmlns="http://www.w3.org/2000/svg">
  <path fill="#000" d="M0 0h1000v400H0z"/>
  <path d="M451.88 98.459 424.487 178h-28.271L368.97 98.459h25.927l15.088 55.225h.879l14.942-55.225h26.074Zm60.791 45.264V98.459h24.609V178h-23.437v-14.648h-.879c-3.516 9.594-12.378 15.673-24.317 15.673-16.259 0-27.172-11.792-27.246-29.882V98.459h24.756v45.996c0 8.716 4.834 14.063 12.744 14.063 7.618 0 13.843-5.201 13.77-14.795Zm77.637 35.742c-24.903 0-40.137-15.527-40.137-40.869 0-24.683 15.381-41.162 39.258-41.162 22.339 0 38.379 14.209 38.379 40.576v6.299h-53.321v.439c.074 10.181 6.226 16.846 16.26 16.846 6.738 0 11.792-2.93 13.77-7.617h22.998c-3.003 15.527-16.626 25.488-37.207 25.488Zm-15.821-49.658h30.323c-.147-8.496-6.299-14.502-14.795-14.502-8.716 0-15.161 6.299-15.528 14.502ZM88.525 273.068c-.659-5.273-5.493-8.642-12.011-8.642-6.153 0-10.913 2.71-10.84 6.885-.073 3.002 2.27 5.566 9.082 6.884l15.088 2.93c15.82 3.076 23.437 9.961 23.584 21.533-.147 16.26-15.088 26.807-36.621 26.807-22.779 0-35.962-10.108-37.647-25.928h24.61c.952 5.713 5.786 8.716 13.183 8.789 6.665-.073 11.28-2.637 11.426-7.031-.147-3.589-3.223-5.713-10.108-7.178l-13.623-2.49c-15.673-2.93-23.583-10.84-23.437-22.998-.146-15.747 13.403-25.195 34.863-25.195 21.387 0 34.424 9.741 35.449 25.634H88.525ZM125.586 328v-79.541h23.437v14.502h.879c3.369-9.668 11.646-15.527 22.559-15.527 10.986 0 19.409 6.005 21.533 15.527h.879c3.076-9.448 12.305-15.527 24.023-15.527 14.942 0 25.342 10.107 25.342 26.953V328h-24.756v-48.047c.074-8.13-4.614-12.451-11.279-12.451-7.104 0-11.426 5.054-11.426 12.744V328h-23.73v-48.34c0-7.471-4.468-12.158-11.133-12.158-6.811 0-11.645 5.2-11.572 13.33V328h-24.756Zm130.518-22.119c-.074-17.652 13.623-23.95 29.443-24.902 5.786-.367 15.674-.733 19.043-.879v-6.446c0-5.566-4.102-8.716-10.84-8.642-6.519-.074-10.767 2.856-11.719 8.056h-22.998c1.099-14.062 12.964-25.634 35.303-25.634 19.629 0 34.936 9.301 35.01 26.513V328h-23.291v-11.133h-.586c-4.322 8.057-12.012 12.525-23.145 12.598-15.234-.073-26.294-7.837-26.22-23.584Zm23.437-1.026c-.073 5.347 4.248 8.204 10.254 8.204 8.423 0 15.015-5.494 14.941-13.33v-5.127c-3.003.073-11.352.512-15.088.878-6.225.66-10.18 4.102-10.107 9.375ZM344.434 328v-79.541h24.023v14.355h.732c2.93-10.4 9.961-15.454 18.75-15.527 2.271.073 4.981.44 7.032.879v21.533c-2.344-.732-6.812-1.245-9.815-1.172-9.228-.073-16.04 6.372-15.967 15.967V328h-24.755Zm108.691-79.541v18.164h-14.502v36.475c.073 4.98 2.564 6.518 6.738 6.591 2.051.147 6.006-.073 8.789-.293v18.897c-2.417.366-6.518.806-12.304.879-17.505-.073-27.979-7.251-27.832-23.291v-39.258H403.32v-18.164h10.694v-19.043h24.609v19.043h14.502Zm61.084 26.953v19.043h-48.926v-19.043h48.926Zm63.281-2.344c-.659-5.273-5.493-8.642-12.011-8.642-6.153 0-10.914 2.71-10.84 6.885-.074 3.002 2.27 5.566 9.082 6.884l15.088 2.93c15.82 3.076 23.437 9.961 23.584 21.533-.147 16.26-15.088 26.807-36.622 26.807-22.778 0-35.961-10.108-37.646-25.928h24.609c.953 5.713 5.787 8.716 13.184 8.789 6.665-.073 11.279-2.637 11.426-7.031-.147-3.589-3.223-5.713-10.108-7.178l-13.623-2.49c-15.674-2.93-23.584-10.84-23.437-22.998-.147-15.747 13.403-25.195 34.863-25.195 21.387 0 34.424 9.741 35.449 25.634H577.49Zm74.121 56.397c-24.902 0-40.136-15.527-40.136-40.869 0-24.683 15.38-41.162 39.257-41.162 22.339 0 38.379 14.209 38.379 40.576v6.299h-53.32v.439c.073 10.181 6.226 16.846 16.26 16.846 6.738 0 11.792-2.93 13.769-7.617h22.998c-3.003 15.527-16.626 25.488-37.207 25.488Zm-15.82-49.658h30.322c-.146-8.496-6.299-14.502-14.795-14.502-8.715 0-15.161 6.299-15.527 14.502Zm90.82-57.862V328h-24.756V221.945h24.756Zm52.881 107.52c-24.902 0-40.137-15.527-40.137-40.869 0-24.683 15.381-41.162 39.258-41.162 22.339 0 38.379 14.209 38.379 40.576v6.299h-53.32v.439c.073 10.181 6.225 16.846 16.26 16.846 6.738 0 11.792-2.93 13.769-7.617h22.998c-3.003 15.527-16.626 25.488-37.207 25.488Zm-15.82-49.658h30.322c-.146-8.496-6.299-14.502-14.795-14.502-8.716 0-15.161 6.299-15.527 14.502Zm102.978 49.658c-25.048 0-39.99-16.699-39.99-41.016 0-24.389 15.088-41.015 39.99-41.015 21.753 0 36.036 12.597 36.621 31.933h-22.998c-1.098-8.056-5.932-13.11-13.33-13.183-9.082.073-15.161 7.763-15.088 21.972-.073 14.429 5.933 22.193 15.088 22.119 7.105.074 12.232-4.614 13.33-13.037h22.998c-.659 19.409-14.501 32.227-36.621 32.227Zm93.75-81.006v18.164h-14.502v36.475c.074 4.98 2.564 6.518 6.739 6.591 2.051.147 6.006-.073 8.789-.293v18.897c-2.417.366-6.519.806-12.305.879-17.505-.073-27.978-7.251-27.832-23.291v-39.258h-10.693v-18.164h10.693v-19.043h24.609v19.043H960.4Z" fill="#00DC82"/>
</svg>